<svg width="176" height="24" viewBox="0 0 176 24" fill="none" xmlns="http://www.w3.org/2000/svg">
<g clip-path="url(#clip0_397_144)">
<mask id="mask0_397_144" style="mask-type:luminance" maskUnits="userSpaceOnUse" x="0" y="0" width="176" height="24">
<path d="M176 0H0V24H176V0Z" fill="white"/>
</mask>
<g mask="url(#mask0_397_144)">
<path d="M15.2009 10.2498L9.7178 22.9818L0.431641 1.43806H4.9178L9.88765 12.9673L15.2009 0.630371L20.5178 12.9673L25.4914 1.43806H29.9775L20.6923 22.9818L15.2009 10.2498ZM101.878 11.5282C101.836 10.2098 102.062 8.89651 102.541 7.6674C103.02 6.43828 103.742 5.31868 104.665 4.37589C105.587 3.43311 106.691 2.68661 107.909 2.18128C109.128 1.67594 110.436 1.42219 111.755 1.43529C114.475 1.43529 117.343 2.08976 119.133 4.55714L116.412 7.32637C115.7 6.14299 113.936 5.31222 111.803 5.31222C108.813 5.31222 106.166 7.70299 106.166 11.5291C106.166 15.1541 108.371 17.9482 111.999 17.9482C113.003 17.9808 113.996 17.7257 114.86 17.2128C115.725 16.6999 116.424 15.9507 116.877 15.0534L119.818 17.3196C119.015 18.7207 117.843 19.8746 116.43 20.6558C115.016 21.437 113.416 21.8156 111.802 21.7504C105.968 21.7485 101.878 17.5947 101.878 11.5282ZM58.1794 11.579C58.1316 10.2361 58.3604 8.89765 58.8517 7.64692C59.3431 6.39619 60.0863 5.25986 61.0354 4.30854C61.9845 3.35722 63.119 2.61125 64.3686 2.11696C65.6182 1.62268 66.956 1.39065 68.2991 1.43529C69.6423 1.38646 70.9811 1.61582 72.2315 2.10896C73.4818 2.60211 74.6168 3.34839 75.565 4.30098C76.5133 5.25357 77.2544 6.39189 77.7418 7.64449C78.2291 8.89709 78.4525 10.2369 78.3975 11.5799C78.3975 17.3436 74.4283 21.7485 68.2991 21.7485C66.9543 21.7909 65.6152 21.5565 64.3649 21.0598C63.1145 20.5632 61.9795 19.815 61.0303 18.8615C60.0811 17.908 59.3379 16.7697 58.8468 15.5171C58.3558 14.2646 58.1273 12.9244 58.1757 11.5799L58.1794 11.579ZM62.4698 11.579C62.4698 15.0516 64.7009 17.9482 68.3028 17.9482C71.9803 17.9482 74.1126 15.0534 74.1126 11.579C74.1126 8.12945 71.9803 5.28637 68.3028 5.28637C64.6963 5.28637 62.4625 8.13037 62.4625 11.5799L62.4698 11.579ZM38.8889 11.5282C38.8473 10.21 39.0726 8.89698 39.5513 7.66805C40.03 6.43912 40.7522 5.31965 41.6745 4.3769C42.5968 3.43416 43.7002 2.6876 44.9183 2.1821C46.1365 1.67659 47.4443 1.42257 48.7631 1.43529C51.4843 1.43529 54.3523 2.08976 56.1421 4.55714L53.4209 7.32637C52.7092 6.14299 50.9452 5.31222 48.812 5.31222C45.8221 5.31222 43.1748 7.70299 43.1748 11.5291C43.1748 15.1541 45.38 17.9482 49.0077 17.9482C50.0122 17.9808 51.0051 17.7257 51.8694 17.2128C52.7337 16.6999 53.4334 15.9507 53.8861 15.0534L56.8317 17.3187C56.0285 18.7197 54.8565 19.8735 53.4431 20.6548C52.0298 21.436 50.4293 21.8146 48.8157 21.7494C42.9781 21.7485 38.8852 17.5947 38.8852 11.5282H38.8889ZM95.5178 21.4218L86.0148 9.28791V21.4218H81.6763V1.63745H84.7871L94.2458 13.6181V1.63745H98.5548V21.4218H95.5178ZM168.34 21.4218L171.646 13.7538L174.952 21.4218H168.34ZM158.648 21.4218V5.23652H154.138V1.63653H167.472V5.23652H162.962V21.4208L158.648 21.4218ZM139.239 21.4218V1.63745H145.608C150.437 1.63745 152.79 4.20453 152.79 7.5276C152.79 11.2781 149.702 14.0214 145.877 14.0214H143.549V21.4208L139.239 21.4218ZM143.552 10.247H145.341C147.719 10.247 148.48 9.19006 148.48 7.55345C148.48 6.2196 147.72 5.23837 145.318 5.23837H143.553L143.552 10.247ZM122.859 21.4208V1.63745H134.859V5.23745H127.17V9.54083H134.07V13.115H127.17V17.6704H135.443V21.4208H122.859ZM28.3889 21.4208L31.6945 13.7528L34.9991 21.4208H28.3889Z" fill="black"/>
</g>
</g>
<defs>
<clipPath id="clip0_397_144">
<rect width="176" height="24" fill="white"/>
</clipPath>
</defs>
</svg>
